<?xml version="1.0" encoding="UTF-8"?>
<!DOCTYPE svg PUBLIC "-//W3C//DTD SVG 1.1//EN" "http://www.w3.org/Graphics/SVG/1.1/DTD/svg11.dtd">
<svg xmlns="http://www.w3.org/2000/svg" version="1.1" width="457px" height="538px" style="shape-rendering:geometricPrecision; text-rendering:geometricPrecision; image-rendering:optimizeQuality; fill-rule:evenodd; clip-rule:evenodd" xmlns:xlink="http://www.w3.org/1999/xlink">
<g><path style="opacity:0.978" fill="#fefefe" d="M 217.5,12.5 C 229.5,12.5 241.5,12.5 253.5,12.5C 256.833,27.1667 260.167,41.8333 263.5,56.5C 244.833,56.5 226.167,56.5 207.5,56.5C 210.833,41.8333 214.167,27.1667 217.5,12.5 Z"/></g>
<g><path style="opacity:0.996" fill="#fefefe" d="M 97.5,71.5 C 188.169,71.1667 278.836,71.5 369.5,72.5C 373.094,86.3776 376.761,100.211 380.5,114C 282.834,114.5 185.167,114.667 87.5,114.5C 90.6753,100.132 94.0086,85.7987 97.5,71.5 Z"/></g>
<g><path style="opacity:0.994" fill="#fdfdfd" d="M 326.5,537.5 C 263.167,537.5 199.833,537.5 136.5,537.5C 115.616,401.53 94.9494,265.53 74.5,129.5C 179.501,129.333 284.501,129.5 389.5,130C 368.085,265.734 347.085,401.567 326.5,537.5 Z"/></g>
<g><path style="opacity:1" fill="#141017" d="M 212.5,190.5 C 227.833,190.5 243.167,190.5 258.5,190.5C 255.03,281.816 252.03,373.15 249.5,464.5C 240.167,464.5 230.833,464.5 221.5,464.5C 219.166,373.142 216.166,281.809 212.5,190.5 Z"/></g>
<g><path style="opacity:1" fill="#151118" d="M 136.5,200.5 C 136.5,199.167 136.5,197.833 136.5,196.5C 139.385,196.806 142.052,196.473 144.5,195.5C 156.808,194.456 169.142,193.79 181.5,193.5C 184.339,284.841 187.339,376.174 190.5,467.5C 181.476,467.891 172.476,468.558 163.5,469.5C 154.335,379.856 145.335,290.189 136.5,200.5 Z"/></g>
<g><path style="opacity:1" fill="#151118" d="M 292.5,193.5 C 307.478,194.801 322.478,195.801 337.5,196.5C 326.909,287.563 315.909,378.563 304.5,469.5C 295.51,468.713 286.51,468.046 277.5,467.5C 282.352,376.155 287.352,284.822 292.5,193.5 Z"/></g>
<g><path style="opacity:1" fill="#7d7a7e" d="M 144.5,195.5 C 142.052,196.473 139.385,196.806 136.5,196.5C 136.5,197.833 136.5,199.167 136.5,200.5C 135.549,199.081 135.216,197.415 135.5,195.5C 138.5,195.5 141.5,195.5 144.5,195.5 Z"/></g>
</svg>
