<?xml version="1.0" encoding="UTF-8"?>
<!DOCTYPE svg PUBLIC "-//W3C//DTD SVG 1.1//EN" "http://www.w3.org/Graphics/SVG/1.1/DTD/svg11.dtd">
<svg xmlns="http://www.w3.org/2000/svg" version="1.1" width="547px" height="582px" style="shape-rendering:geometricPrecision; text-rendering:geometricPrecision; image-rendering:optimizeQuality; fill-rule:evenodd; clip-rule:evenodd" xmlns:xlink="http://www.w3.org/1999/xlink">
<g><path style="opacity:0.977" fill="#fefffe" d="M 450.5,46.5 C 473.101,46.6262 482.267,57.9596 478,80.5C 474.886,108.861 471.552,137.195 468,165.5C 460.07,181.046 448.237,184.879 432.5,177C 427.408,172.976 424.241,167.809 423,161.5C 422.971,154.781 423.304,148.114 424,141.5C 386.167,179.333 348.333,217.167 310.5,255C 301.4,260.596 292.067,260.929 282.5,256C 271.522,246.427 269.688,235.261 277,222.5C 313.5,186 350,149.5 386.5,113C 378.244,114.644 369.911,116.144 361.5,117.5C 347.264,116.766 339.264,109.266 337.5,95C 338.657,81.3592 345.991,73.3592 359.5,71C 389.999,62.961 420.332,54.7943 450.5,46.5 Z"/></g>
<g><path style="opacity:0.979" fill="#fefffe" d="M 50.5,127.5 C 112.834,127.333 175.168,127.5 237.5,128C 248.814,128.74 255.98,134.573 259,145.5C 261.5,160.674 255.333,170.174 240.5,174C 185.834,174.5 131.168,174.667 76.5,174.5C 76.5,284.5 76.5,394.5 76.5,504.5C 179.5,504.5 282.5,504.5 385.5,504.5C 385.333,426.833 385.5,349.166 386,271.5C 392.48,255.218 403.98,250.385 420.5,257C 426.067,260.287 429.567,265.121 431,271.5C 431.667,358.833 431.667,446.167 431,533.5C 426.654,545.934 417.821,551.768 404.5,551C 286.5,551.667 168.5,551.667 50.5,551C 40.6363,549.469 34.1363,543.969 31,534.5C 30.3333,404.5 30.3333,274.5 31,144.5C 34.2938,135.033 40.7938,129.366 50.5,127.5 Z"/></g>
</svg>
